<svg width="12" height="12" viewBox="0 0 12 12" fill="" xmlns="http://www.w3.org/2000/svg">
<path d="M11.1966 6.75385C11.0851 6.72587 10.9736 6.75385 10.876 6.8238C10.5135 7.13159 10.0953 7.38341 9.6352 7.55129C9.20301 7.71918 8.72901 7.80312 8.22712 7.80312C7.09786 7.80312 6.0662 7.34144 5.32731 6.59996C4.58841 5.85848 4.12835 4.82321 4.12835 3.69C4.12835 3.21433 4.212 2.75266 4.35141 2.33295C4.50477 1.88526 4.72783 1.47955 5.0206 1.12979C5.14607 0.9759 5.11819 0.752056 4.96483 0.626144C4.86724 0.556193 4.75571 0.528213 4.64418 0.556193C3.45916 0.877968 2.4275 1.59147 1.6886 2.5428C0.977593 3.48015 0.54541 4.64133 0.54541 5.91444C0.54541 7.43937 1.15883 8.8244 2.16261 9.8317C3.16639 10.839 4.54659 11.4546 6.0662 11.4546C7.34881 11.4546 8.53383 11.0069 9.48184 10.2654C10.4438 9.50992 11.1409 8.43268 11.4336 7.20154C11.5033 6.99169 11.3918 6.79582 11.1966 6.75385ZM9.0636 9.67781C8.255 10.3214 7.22334 10.7131 6.09408 10.7131C4.76965 10.7131 3.57069 10.1675 2.70633 9.30007C1.84196 8.43268 1.29825 7.22952 1.29825 5.90045C1.29825 4.79522 1.66072 3.78793 2.28808 2.9765C2.72027 2.41689 3.26398 1.95521 3.89134 1.63344C3.82164 1.78733 3.75193 1.94122 3.69617 2.10911C3.51493 2.61275 3.43128 3.14438 3.43128 3.70399C3.43128 5.03306 3.97499 6.25021 4.83936 7.1176C5.70373 7.98499 6.91663 8.53061 8.24106 8.53061C8.8266 8.53061 9.38425 8.43268 9.90008 8.23681C10.0813 8.16686 10.2626 8.09691 10.4299 8.01297C10.0953 8.65652 9.6352 9.23012 9.0636 9.67781Z" fill=""/>
</svg>
