<svg width="80" height="14" viewBox="0 0 80 14" fill="none" xmlns="http://www.w3.org/2000/svg">
<g clip-path="url(#clip0_248_2798)">
<path d="M7.58007 11.0412L12.2646 13.6501L11.0252 8.72981L15.1601 5.4209L9.70933 4.98898L7.58007 0.350098L5.45084 4.98898L0 5.4209L4.13494 8.72981L2.89559 13.6501L7.58007 11.0412Z" fill="white"/>
</g>
<g clip-path="url(#clip1_248_2798)">
<path d="M23.751 11.0412L28.4355 13.6501L27.1961 8.72981L31.331 5.4209L25.8802 4.98898L23.751 0.350098L21.6217 4.98898L16.1709 5.4209L20.3058 8.72981L19.0665 13.6501L23.751 11.0412Z" fill="white"/>
</g>
<g clip-path="url(#clip2_248_2798)">
<path d="M40.1651 10.6044L39.9219 10.4689L39.6786 10.6044L36.0048 12.6504L36.9616 8.85194L37.0401 8.54025L36.7891 8.33942L33.6403 5.81958L37.8321 5.48742L38.1247 5.46424L38.2471 5.19756L39.9219 1.54869L41.5967 5.19756L41.7191 5.46424L42.0116 5.48742L46.2035 5.81958L43.0546 8.33942L42.8036 8.54025L42.8821 8.85194L43.8389 12.6504L40.1651 10.6044Z" stroke="white"/>
</g>
<g clip-path="url(#clip3_248_2798)">
<path d="M56.336 10.6044L56.0928 10.4689L55.8495 10.6044L52.1757 12.6504L53.1325 8.85194L53.211 8.54025L52.96 8.33942L49.8112 5.81958L54.003 5.48742L54.2956 5.46424L54.418 5.19756L56.0928 1.54869L57.7676 5.19756L57.89 5.46424L58.1825 5.48742L62.3744 5.81958L59.2255 8.33942L58.9745 8.54025L59.053 8.85194L60.0098 12.6504L56.336 10.6044Z" stroke="white"/>
</g>
<g clip-path="url(#clip4_248_2798)">
<path d="M72.5069 10.6044L72.2637 10.4689L72.0204 10.6044L68.3466 12.6504L69.3034 8.85194L69.3819 8.54025L69.1309 8.33942L65.982 5.81958L70.1739 5.48742L70.4665 5.46424L70.5889 5.19756L72.2637 1.54869L73.9385 5.19756L74.0609 5.46424L74.3534 5.48742L78.5453 5.81958L75.3964 8.33942L75.1454 8.54025L75.2239 8.85194L76.1807 12.6504L72.5069 10.6044Z" stroke="white"/>
</g>
<defs>
<clipPath id="clip0_248_2798">
<rect width="15.1601" height="14" fill="white"/>
</clipPath>
<clipPath id="clip1_248_2798">
<rect width="15.1601" height="14" fill="white" transform="translate(16.1709)"/>
</clipPath>
<clipPath id="clip2_248_2798">
<rect width="15.1601" height="14" fill="white" transform="translate(32.3418)"/>
</clipPath>
<clipPath id="clip3_248_2798">
<rect width="15.1601" height="14" fill="white" transform="translate(48.5127)"/>
</clipPath>
<clipPath id="clip4_248_2798">
<rect width="15.1601" height="14" fill="white" transform="translate(64.6836)"/>
</clipPath>
</defs>
</svg>
