<svg width="32" height="32" viewBox="0 0 32 32" fill="none" xmlns="http://www.w3.org/2000/svg">
<g clip-path="url(#clip0_2403_638)">
<path d="M740.129 -168.774H-3833.29V1911.74H740.129V-168.774Z" fill="#F2F2F2"/>
<mask id="mask0_2403_638" style="mask-type:luminance" maskUnits="userSpaceOnUse" x="0" y="0" width="620" height="32">
<path d="M619.355 0H0V32H619.355V0Z" fill="white"/>
</mask>
<g mask="url(#mask0_2403_638)">
<mask id="mask1_2403_638" style="mask-type:luminance" maskUnits="userSpaceOnUse" x="0" y="0" width="106" height="32">
<path d="M105.806 0H0V32H105.806V0Z" fill="white"/>
</mask>
<g mask="url(#mask1_2403_638)">
<path d="M11.7218 20.7577L14.5294 17.7974L17.7231 20.7577H23.198L14.4943 12.1938L5.86084 20.7577H11.7218Z" fill="#2D383F"/>
<path d="M19.7588 7.01321L15.6175 11.2423L18.355 14.0617L19.7588 12.652L27.4447 20.3348C25.69 25.022 21.1977 28.3701 15.8983 28.3701C9.08975 28.3701 3.57975 22.837 3.57975 16C3.61484 9.16299 9.12485 3.62996 15.9334 3.62996C21.9698 3.62996 27.0236 8.03525 28.0413 13.7797L31.7615 17.7269C31.8317 17.163 31.8668 16.5639 31.8668 16C31.8668 11.7357 30.2173 7.71804 27.1991 4.68723C24.1808 1.65639 20.18 0 15.9334 0C11.6517 0 7.68593 1.65639 4.66771 4.68723C1.64949 7.71804 0 11.7004 0 16C0 20.2996 1.64949 24.282 4.66771 27.3128C7.68593 30.3436 11.6868 32 15.9334 32C20.18 32 24.1808 30.3436 27.1991 27.3128C29.0591 25.445 30.3928 23.2247 31.1298 20.7929C31.2701 20.3701 31.3754 19.9119 31.4807 19.489L28.2519 16.0705L19.7588 7.01321Z" fill="#2D383F"/>
</g>
</g>
<path d="M627.097 -10.0645H-7.74187C-9.0246 -10.0645 -10.0645 -9.0246 -10.0645 -7.74187V152.774C-10.0645 154.057 -9.0246 155.097 -7.74187 155.097H627.097C628.38 155.097 629.419 154.057 629.419 152.774V-7.74187C629.419 -9.0246 628.38 -10.0645 627.097 -10.0645Z" stroke="#9747FF" stroke-dasharray="10 5"/>
</g>
<defs>
<clipPath id="clip0_2403_638">
<rect width="32" height="32" fill="white"/>
</clipPath>
</defs>
</svg>
