<svg width="81" height="14" viewBox="0 0 81 14" fill="none" xmlns="http://www.w3.org/2000/svg">
<g clip-path="url(#clip0_248_2753)">
<path d="M7.63441 11.0412L12.3525 13.6501L11.1042 8.72981L15.2688 5.4209L9.77893 4.98898L7.63441 0.350098L5.48992 4.98898L0 5.4209L4.16458 8.72981L2.91634 13.6501L7.63441 11.0412Z" fill="white"/>
</g>
<g clip-path="url(#clip1_248_2753)">
<path d="M23.9215 11.0412L28.6396 13.6501L27.3913 8.72981L31.5559 5.4209L26.066 4.98898L23.9215 0.350098L21.777 4.98898L16.2871 5.4209L20.4517 8.72981L19.2035 13.6501L23.9215 11.0412Z" fill="white"/>
</g>
<g clip-path="url(#clip2_248_2753)">
<path d="M40.2077 11.0412L44.9257 13.6501L43.6775 8.72981L47.8421 5.4209L42.3522 4.98898L40.2077 0.350098L38.0632 4.98898L32.5732 5.4209L36.7378 8.72981L35.4896 13.6501L40.2077 11.0412Z" fill="white"/>
</g>
<g clip-path="url(#clip3_248_2753)">
<path d="M56.7367 10.6037L56.4948 10.4699L56.2528 10.6037L52.5453 12.6537L53.5096 8.85276L53.5891 8.53943L53.336 8.33834L50.1661 5.81972L54.3895 5.48744L54.6813 5.46449L54.8041 5.19879L56.4948 1.54165L58.1854 5.19879L58.3083 5.46449L58.6001 5.48744L62.8235 5.81972L59.6535 8.33834L59.4004 8.53943L59.4799 8.85276L60.4442 12.6537L56.7367 10.6037Z" stroke="white"/>
</g>
<g clip-path="url(#clip4_248_2753)">
<path d="M73.0228 10.6037L72.7809 10.4699L72.5389 10.6037L68.8314 12.6537L69.7957 8.85276L69.8752 8.53943L69.6221 8.33834L66.4522 5.81972L70.6756 5.48744L70.9674 5.46449L71.0903 5.19879L72.7809 1.54165L74.4716 5.19879L74.5944 5.46449L74.8862 5.48744L79.1096 5.81972L75.9397 8.33834L75.6866 8.53943L75.7661 8.85276L76.7303 12.6537L73.0228 10.6037Z" stroke="white"/>
</g>
<defs>
<clipPath id="clip0_248_2753">
<rect width="15.2688" height="14" fill="white"/>
</clipPath>
<clipPath id="clip1_248_2753">
<rect width="15.2688" height="14" fill="white" transform="translate(16.2871)"/>
</clipPath>
<clipPath id="clip2_248_2753">
<rect width="15.2688" height="14" fill="white" transform="translate(32.5732)"/>
</clipPath>
<clipPath id="clip3_248_2753">
<rect width="15.2688" height="14" fill="white" transform="translate(48.8604)"/>
</clipPath>
<clipPath id="clip4_248_2753">
<rect width="15.2688" height="14" fill="white" transform="translate(65.1465)"/>
</clipPath>
</defs>
</svg>
